
<svg xmlns="http://www.w3.org/2000/svg"
xmlns:xlink="http://www.w3.org/1999/xlink" 
aria-hidden="true" role="img" class="iconify iconify--logos"
width="31.88" height="32"  
viewBox="0 0 256 257"
preserveAspectRatio="xMidYMid meet">
 
<defs>
<linearGradient id="IconifyId1813088fe1fbc01fb466" 
x1="-.828%" x2="57.636%" y1="7.652%" y2="78.411%">
<stop offset="0%" stop-color="#41D1FF"></stop>
<stop offset="100%" stop-color="#BD34FE"></stop>
</linearGradient>
<linearGradient id="IconifyId1813088fe1fbc01fb467" 
x1="43.376%" x2="50.316%" y1="2.242%" y2="89.03%">
<stop offset="0%" stop-color="#FFEA83"></stop>
<stop offset="8.333%" stop-color="#FFDD35"></stop>
<stop offset="100%" stop-color="#FFA800"></stop>
</linearGradient>
</defs>
<path fill="url(#IconifyId1813088fe1fbc01fb466)"
 d="M4 328 c2 -116 7 -173 15 -176 7 -2 11 -32 11 -78 0 -72 1 -74 25
-74 16 0 25 6 25 16 0 14 2 15 17 3 11 -10 55 -15 150 -17 l133 -4 0 89 c0 99
-7 133 -25 133 -15 0 -30 33 -17 38 5 1 7 15 4 31 -2 16 1 31 6 35 12 7 4 45
-9 47 -5 1 -14 2 -21 3 -6 0 -15 15 -20 32 -4 18 -19 39 -33 48 -14 9 -25 23
-25 31 0 12 -21 15 -119 15 l-120 0 3 -172z m181 35 c33 -16 35 -19 35 -66 l0
-49 -50 4 c-28 1 -52 -1 -55 -7 -3 -6 -7 -5 -11 3 -7 16 -25 16 -22 0 6 -28
22 -36 45 -21 21 14 23 14 23 -1 0 -10 -4 -14 -10 -11 -5 3 -10 -3 -10 -14 0
-32 -21 -69 -42 -74 -24 -7 -30 8 -26 64 2 34 -2 48 -17 61 -20 17 -20 17 1
18 17 0 24 10 33 45 8 32 18 49 34 55 31 12 32 12 72 -7z m-2 -179 c20 -4 20
-7 -3 -14 l-25 -8 24 -1 c20 -1 22 -4 13 -13 -9 -9 -15 -9 -24 0 -17 17 -22
56 -6 45 7 -4 16 -8 21 -9z m-14 -65 c-15 -9 -32 -2 -24 11 3 5 13 6 21 3 12
-4 13 -8 3 -14z m-51 -18 c11 -6 10 -11 -3 -25 -9 -9 -14 -17 -11 -17 3 -1 10
-2 15 -3 23 -3 22 -16 -2 -16 -27 0 -47 24 -47 54 0 17 27 21 48 7z"/>
</path>
</svg>

